<svg width="360" height="75" viewBox="0 0 360 75" fill="none" xmlns="http://www.w3.org/2000/svg">
<path d="M5.47863 74.48L0.366625 64.112C2.71862 64.112 4.51863 63.848 5.76662 63.32C7.06263 62.792 7.95063 61.856 8.43063 60.512C8.91063 59.168 9.15063 57.248 9.15063 54.752V20.624H22.5426V57.92C22.5426 61.904 21.8946 65.096 20.5986 67.496C19.3506 69.944 17.4546 71.72 14.9106 72.824C12.4146 73.928 9.27063 74.48 5.47863 74.48ZM16.0626 13.352C13.6146 13.352 11.7186 12.8 10.3746 11.696C9.03063 10.544 8.35863 8.936 8.35863 6.872C8.35863 4.952 9.03063 3.392 10.3746 2.192C11.7666 0.943996 13.6626 0.319996 16.0626 0.319996C18.4626 0.319996 20.3346 0.895997 21.6786 2.048C23.0706 3.152 23.7666 4.76 23.7666 6.872C23.7666 8.792 23.0706 10.352 21.6786 11.552C20.2866 12.752 18.4146 13.352 16.0626 13.352ZM51.2628 59.72C47.1828 59.72 43.5348 58.856 40.3188 57.128C37.1028 55.4 34.5828 53.048 32.7588 50.072C30.9348 47.096 30.0228 43.664 30.0228 39.776C30.0228 35.888 30.9348 32.456 32.7588 29.48C34.5828 26.504 37.1028 24.152 40.3188 22.424C43.5348 20.696 47.1828 19.832 51.2628 19.832C55.3428 19.832 58.9668 20.696 62.1348 22.424C65.3508 24.152 67.8708 26.504 69.6948 29.48C71.5188 32.456 72.4308 35.888 72.4308 39.776C72.4308 43.664 71.5188 47.096 69.6948 50.072C67.8708 53.048 65.3508 55.4 62.1348 57.128C58.9668 58.856 55.3428 59.72 51.2628 59.72ZM51.2628 48.416C52.7028 48.416 53.9988 48.056 55.1508 47.336C56.3508 46.568 57.2628 45.536 57.8868 44.24C58.5588 42.896 58.8948 41.408 58.8948 39.776C58.8948 38.048 58.5588 36.536 57.8868 35.24C57.2628 33.944 56.3508 32.936 55.1508 32.216C53.9988 31.448 52.7028 31.064 51.2628 31.064C49.7748 31.064 48.4548 31.448 47.3028 32.216C46.1508 32.936 45.2388 33.968 44.5668 35.312C43.8948 36.608 43.5588 38.096 43.5588 39.776C43.5588 41.408 43.8948 42.896 44.5668 44.24C45.2388 45.536 46.1508 46.568 47.3028 47.336C48.4548 48.056 49.7748 48.416 51.2628 48.416ZM98.2315 59.72C94.1515 59.72 90.5035 58.856 87.2875 57.128C84.0715 55.4 81.5515 53.048 79.7275 50.072C77.9035 47.096 76.9915 43.664 76.9915 39.776C76.9915 35.888 77.9035 32.456 79.7275 29.48C81.5515 26.504 84.0715 24.152 87.2875 22.424C90.5035 20.696 94.1515 19.832 98.2315 19.832C102.312 19.832 105.936 20.696 109.104 22.424C112.32 24.152 114.84 26.504 116.664 29.48C118.488 32.456 119.4 35.888 119.4 39.776C119.4 43.664 118.488 47.096 116.664 50.072C114.84 53.048 112.32 55.4 109.104 57.128C105.936 58.856 102.312 59.72 98.2315 59.72ZM98.2315 48.416C99.6715 48.416 100.968 48.056 102.12 47.336C103.32 46.568 104.232 45.536 104.856 44.24C105.528 42.896 105.864 41.408 105.864 39.776C105.864 38.048 105.528 36.536 104.856 35.24C104.232 33.944 103.32 32.936 102.12 32.216C100.968 31.448 99.6715 31.064 98.2315 31.064C96.7435 31.064 95.4235 31.448 94.2715 32.216C93.1195 32.936 92.2075 33.968 91.5355 35.312C90.8635 36.608 90.5275 38.096 90.5275 39.776C90.5275 41.408 90.8635 42.896 91.5355 44.24C92.2075 45.536 93.1195 46.568 94.2715 47.336C95.4235 48.056 96.7435 48.416 98.2315 48.416ZM129.216 59V10.904H142.608V59H129.216ZM122.88 32V20.624H149.304V32H122.88ZM183.274 59L170.818 20.624H185.002L191.194 43.88L189.682 43.592L196.666 25.52H204.442L212.002 43.592L210.49 43.808L216.61 20.624H230.794L217.69 59H207.61L200.338 40.136H200.842L193.354 59H183.274ZM253.833 59.72C249.753 59.72 246.105 58.856 242.889 57.128C239.673 55.4 237.153 53.048 235.329 50.072C233.505 47.096 232.593 43.664 232.593 39.776C232.593 35.888 233.505 32.456 235.329 29.48C237.153 26.504 239.673 24.152 242.889 22.424C246.105 20.696 249.753 19.832 253.833 19.832C257.913 19.832 261.537 20.696 264.705 22.424C267.921 24.152 270.441 26.504 272.265 29.48C274.089 32.456 275.001 35.888 275.001 39.776C275.001 43.664 274.089 47.096 272.265 50.072C270.441 53.048 267.921 55.4 264.705 57.128C261.537 58.856 257.913 59.72 253.833 59.72ZM253.833 48.416C255.273 48.416 256.569 48.056 257.721 47.336C258.921 46.568 259.833 45.536 260.457 44.24C261.129 42.896 261.465 41.408 261.465 39.776C261.465 38.048 261.129 36.536 260.457 35.24C259.833 33.944 258.921 32.936 257.721 32.216C256.569 31.448 255.273 31.064 253.833 31.064C252.345 31.064 251.025 31.448 249.873 32.216C248.721 32.936 247.809 33.968 247.137 35.312C246.465 36.608 246.129 38.096 246.129 39.776C246.129 41.408 246.465 42.896 247.137 44.24C247.809 45.536 248.721 46.568 249.873 47.336C251.025 48.056 252.345 48.416 253.833 48.416ZM282.298 59V20.624H294.826L295.546 33.224L292.738 31.064C293.362 28.952 294.322 27.056 295.618 25.376C296.962 23.648 298.57 22.304 300.442 21.344C302.314 20.336 304.282 19.832 306.346 19.832C307.21 19.832 308.026 19.904 308.794 20.048C309.562 20.144 310.282 20.288 310.954 20.48L307.282 35.312C306.754 34.976 306.01 34.688 305.05 34.448C304.09 34.16 303.058 34.016 301.954 34.016C300.994 34.016 300.13 34.184 299.362 34.52C298.594 34.808 297.946 35.24 297.418 35.816C296.89 36.392 296.482 37.088 296.194 37.904C295.906 38.672 295.762 39.584 295.762 40.64V59H282.298ZM329.785 48.056L323.737 39.128L341.521 20.624H359.017L329.785 48.056ZM316.681 59V5.72H330.145V59H316.681ZM342.817 59L329.713 41.144L339.145 34.232L358.297 59H342.817Z" fill="#252525"/>
<path d="M160.556 59.792C158.396 59.792 156.716 59.192 155.516 57.992C154.364 56.792 153.788 55.088 153.788 52.88C153.788 50.864 154.412 49.208 155.66 47.912C156.908 46.616 158.54 45.968 160.556 45.968C162.668 45.968 164.324 46.568 165.524 47.768C166.724 48.968 167.324 50.672 167.324 52.88C167.324 54.896 166.7 56.552 165.452 57.848C164.204 59.144 162.572 59.792 160.556 59.792Z" fill="#04C4A1"/>
</svg>
